<?xml version="1.0" encoding="UTF-8"?>
<!-- Generator: Adobe Illustrator 18.1.1, SVG Export Plug-In . SVG Version: 6.00 Build 0)  -->
<svg version="1.1" id="Layer_1" xmlns="http://www.w3.org/2000/svg" xmlns:xlink="http://www.w3.org/1999/xlink" x="0px" y="0px" viewBox="0 0 30 30" enable-background="new 0 0 30 30" xml:space="preserve">
<g>
	<defs>
		<rect id="SVGID_1_" x="0" width="30" height="30"/>
	</defs>
	<clipPath id="SVGID_2_">
		<use xlink:href="#SVGID_1_" overflow="visible"/>
	</clipPath>
	<path clip-path="url(#SVGID_2_)" fill="#2B3D75" d="M0,15C0,6.7,6.7,0,15,0c8.3,0,15,6.7,15,15c0,8.3-6.7,15-15,15   C6.7,30,0,23.3,0,15"/>
	<path clip-path="url(#SVGID_2_)" fill="#FFFFFF" d="M17.1,20.4c0-0.6,0.5-1.1,1.1-1.1c0.6,0,1.1,0.5,1.1,1.1c0,0.6-0.5,1.1-1.1,1.1   C17.6,21.5,17.1,21,17.1,20.4 M10.7,18.4c-0.5,0-0.8-0.4-0.8-0.9l0.4-6.5c0-0.5,0.4-0.9,0.9-0.9l7.6,0c0.5,0,0.9,0.4,0.9,0.9   l0.4,6.5c0,0.5-0.3,0.9-0.8,0.9H10.7z M11.8,21.5c-0.6,0-1.1-0.5-1.1-1.1c0-0.6,0.5-1.1,1.1-1.1s1.1,0.5,1.1,1.1   C12.9,21,12.4,21.5,11.8,21.5 M11.3,8.2c0-0.5,0.4-0.9,0.9-0.9h5.7c0.5,0,0.9,0.4,0.9,0.9v0.3c0,0.5-0.4,0.9-0.9,0.9h-5.7   c-0.5,0-0.9-0.4-0.9-0.9V8.2z M15,3.9c0.4,0,1.7,0,2.2,0c-0.1,0.2-0.5,1.4-0.8,2h-2.9c-0.3-0.7-0.7-1.8-0.8-2   C13.3,3.9,14.6,3.9,15,3.9 M19,22.8c0.5-0.1,1.1-0.5,1.3-1l0.6-1.3c0.3-0.6,0.5-1.5,0.4-2.1l-0.6-11c0-0.8-0.8-1.6-1.8-1.6h-1.7   c0.3-0.7,0.8-1.9,0.8-2C18.8,4,18.9,4,19,4.1c0,0,0,0.1,0,0.1l0-0.1c0,0.2,0.2,0.3,0.4,0.3c0.2,0,0.4-0.2,0.4-0.4   c0-0.6-0.9-0.7-1.7-0.8C17.5,3.1,16.4,3,15,3c-1.5,0-2.5,0.1-3.1,0.1c-0.8,0.1-1.7,0.3-1.7,0.8c0,0.2,0.2,0.4,0.4,0.4   c0.2,0,0.3-0.1,0.4-0.3l0,0.1c0,0,0-0.1,0-0.1c0,0,0.2-0.1,0.9-0.2c0.1,0.1,0.5,1.3,0.8,2h-1.6c-1,0-1.7,0.8-1.8,1.6l-0.7,11   c0,0.6,0.2,1.6,0.4,2.1l0.6,1.3c0.2,0.4,0.7,0.8,1.2,1l-2.4,3.7h2l2.4-3.6l4.2,0l2.4,3.6h2L19,22.8z"/>
</g>
</svg>